<svg width="322" height="199" viewBox="0 0 322 199" fill="none" xmlns="http://www.w3.org/2000/svg">
<g clip-path="url(#clip0_20_201)">
<path d="M254.366 155.283C216.44 155.283 186.731 148.418 186.731 139.654C186.731 134.4 197.258 129.712 215.612 126.792C215.677 126.781 215.745 126.784 215.809 126.799C215.874 126.814 215.935 126.842 215.989 126.881C216.043 126.92 216.089 126.969 216.124 127.025C216.158 127.082 216.182 127.145 216.192 127.21C216.203 127.276 216.2 127.343 216.184 127.408C216.169 127.472 216.141 127.533 216.102 127.587C216.062 127.64 216.013 127.686 215.956 127.72C215.899 127.755 215.836 127.778 215.771 127.788C198.481 130.538 187.74 135.085 187.74 139.654C187.74 147.58 218.251 154.275 254.366 154.275C290.48 154.275 320.991 147.58 320.991 139.654C320.991 135.066 310.182 130.508 292.781 127.759C292.649 127.738 292.531 127.666 292.453 127.558C292.374 127.45 292.342 127.315 292.363 127.183C292.384 127.051 292.456 126.933 292.564 126.854C292.672 126.776 292.807 126.743 292.939 126.763C311.408 129.681 322 134.379 322 139.654C322 148.418 292.291 155.283 254.366 155.283Z" fill="#CCCCCC"/>
<path d="M220.811 158.227C224.243 164.096 229.157 168.963 235.063 172.339C240.968 175.716 247.658 177.484 254.463 177.467C261.267 177.449 267.948 175.648 273.837 172.241C279.725 168.835 284.615 163.944 288.017 158.058C265.635 159.344 243.199 159.401 220.811 158.227V158.227Z" fill="#E6E6E6"/>
<path d="M291.737 147.279C293.391 141.485 293.673 135.386 292.559 129.465C291.445 123.544 288.967 117.964 285.321 113.165C281.675 108.366 276.96 104.48 271.551 101.816C266.141 99.1515 260.185 97.7814 254.154 97.814C248.123 97.8465 242.182 99.2809 236.801 102.003C231.421 104.726 226.749 108.662 223.155 113.5C219.56 118.338 217.143 123.945 216.093 129.878C215.044 135.811 215.391 141.906 217.108 147.682C241.897 150.772 266.983 150.636 291.737 147.279Z" fill="#E6E6E6"/>
<path d="M60.2941 4.53664C60.2939 3.71629 60.0711 2.91135 59.6493 2.20746C59.2275 1.50357 58.6226 0.927058 57.8989 0.539274C57.1751 0.15149 56.3597 -0.0330588 55.5393 0.00525866C54.719 0.0435761 53.9243 0.303327 53.24 0.756878C52.5557 1.21043 52.0072 1.84081 51.653 2.58094C51.2989 3.32108 51.1522 4.14328 51.2286 4.96006C51.305 5.77685 51.6017 6.55766 52.0871 7.21941C52.5724 7.88117 53.2283 8.39911 53.985 8.71814V32.2658H57.5181V8.71814C58.3411 8.37096 59.0434 7.78912 59.5372 7.04539C60.0309 6.30166 60.2942 5.42904 60.2941 4.53664V4.53664Z" fill="#CCCCCC"/>
<path d="M85.7848 117.471H85.7833C84.4253 117.469 83.0816 117.195 81.8323 116.663C80.583 116.131 79.4538 115.353 78.5123 114.376C77.5707 113.398 76.836 112.241 76.3521 110.974C75.8682 109.706 75.645 108.354 75.6959 106.999C75.8982 101.653 80.5318 97.3042 86.025 97.3042H113.758L136.578 87.2132C137.19 86.9435 137.884 86.9273 138.508 87.168C139.132 87.4088 139.635 87.8869 139.907 88.4975L146.037 102.328C146.307 102.94 146.323 103.633 146.082 104.256C145.841 104.88 145.362 105.382 144.751 105.653L122.274 115.593C120.048 116.58 117.643 117.103 115.207 117.128L85.7848 117.471Z" fill="#CCCCCC"/>
<path d="M18.5611 170.581C18.4296 170.581 18.2983 170.57 18.1686 170.548L3.24353 168.003H3.24365C2.945 167.953 2.65954 167.843 2.40411 167.68C2.14868 167.517 1.92843 167.305 1.75634 167.056C1.58424 166.807 1.46378 166.526 1.40205 166.23C1.34031 165.933 1.33855 165.628 1.39687 165.331L13.0793 105.813C13.5191 103.243 14.9631 100.953 17.0936 99.4465C19.224 97.9398 21.8664 97.3403 24.4394 97.7797C27.0124 98.2191 29.3053 99.6615 30.8136 101.789C32.3219 103.918 32.9222 106.557 32.4823 109.127L20.7797 168.748C20.6817 169.264 20.4063 169.729 20.0013 170.064C19.5962 170.399 19.0868 170.582 18.5611 170.581V170.581Z" fill="#CCCCCC"/>
<path d="M10.5775 183.517C15.5952 183.517 19.6628 179.454 19.6628 174.442C19.6628 169.43 15.5952 165.367 10.5775 165.367C5.55989 165.367 1.49228 169.43 1.49228 174.442C1.49228 179.454 5.55989 183.517 10.5775 183.517Z" fill="#E6E6E6"/>
<path d="M54.6526 96.6372C73.3294 96.6372 88.47 81.5138 88.47 62.8581C88.47 44.2024 73.3294 29.0789 54.6526 29.0789C35.9758 29.0789 20.8353 44.2024 20.8353 62.8581C20.8353 81.5138 35.9758 96.6372 54.6526 96.6372Z" fill="#E6E6E6"/>
<path d="M54.6526 96.6372C73.3294 96.6372 88.47 81.5138 88.47 62.8581C88.47 44.2024 73.3294 29.0789 54.6526 29.0789C35.9758 29.0789 20.8353 44.2024 20.8353 62.8581C20.8353 81.5138 35.9758 96.6372 54.6526 96.6372Z" fill="#E6E6E6"/>
<path d="M54.6527 88.5706C68.8693 88.5706 80.3942 77.0587 80.3942 62.8581C80.3942 48.6574 68.8693 37.1456 54.6527 37.1456C40.436 37.1456 28.9111 48.6574 28.9111 62.8581C28.9111 77.0587 40.436 88.5706 54.6527 88.5706Z" fill="#4F49AB"/>
<path d="M57.6621 73.6517C55.9935 73.6055 53.9168 73.5476 52.3169 72.3802C51.8405 72.0184 51.4491 71.5568 51.1701 71.028C50.8911 70.4991 50.7312 69.9156 50.7017 69.3186C50.6728 68.8942 50.7425 68.4689 50.9054 68.076C51.0683 67.683 51.3199 67.333 51.6407 67.0533C52.4763 66.348 53.6965 66.1825 55.0115 66.5685L53.6491 56.6236L54.6492 56.4867L56.2509 68.1783L55.4157 67.7955C54.4474 67.3519 53.1183 67.1262 52.2924 67.8233C52.0896 68.0056 51.9316 68.2321 51.8306 68.4853C51.7297 68.7385 51.6886 69.0115 51.7106 69.2832C51.735 69.7275 51.8551 70.1615 52.0625 70.5554C52.2699 70.9493 52.5598 71.294 52.9125 71.5659C54.1575 72.4743 55.8128 72.5915 57.6902 72.6439L57.6621 73.6517Z" fill="#2F2E41"/>
<path d="M48.7031 57.4812H43.2663V58.4896H48.7031V57.4812Z" fill="#2F2E41"/>
<path d="M65.8641 57.4812H60.4273V58.4896H65.8641V57.4812Z" fill="#2F2E41"/>
<path opacity="0.2" d="M37.3287 63.0208C37.3291 56.8768 39.5316 50.9359 43.5374 46.2734C47.5433 41.6109 53.0879 38.535 59.1676 37.6024C55.4942 36.9825 51.7297 37.1665 48.1345 38.1419C44.5392 39.1172 41.1987 40.8605 38.3438 43.2513C35.4889 45.6422 33.1877 48.6236 31.5991 51.9897C30.0104 55.3557 29.1723 59.0261 29.1426 62.7473C29.1128 66.4685 29.8922 70.1518 31.4268 73.5428C32.9615 76.9337 35.2147 79.9514 38.0311 82.3875C40.8474 84.8236 44.1596 86.6199 47.7388 87.6525C51.3181 88.685 55.0791 88.929 58.762 88.3678C52.7683 87.351 47.3282 84.2483 43.4053 79.609C39.4824 74.9698 37.3298 69.0935 37.3287 63.0208V63.0208Z" fill="black"/>
<path d="M80.3942 170.66H28.9111C26.7031 170.658 24.5862 169.781 23.0249 168.221C21.4637 166.662 20.5854 164.547 20.5829 162.342V104.363C20.5854 102.157 21.4637 100.043 23.0249 98.483C24.5862 96.9235 26.7031 96.0463 28.9111 96.0438H36.7345V98.3125C36.7362 99.8497 37.3483 101.323 38.4365 102.41C39.5247 103.497 41 104.109 42.539 104.11H66.7663C68.3052 104.109 69.7806 103.497 70.8688 102.41C71.957 101.323 72.569 99.8497 72.5708 98.3125V96.0438H80.3942C82.6022 96.0463 84.719 96.9235 86.2803 98.483C87.8416 100.043 88.7198 102.157 88.7223 104.363V162.342C88.7198 164.547 87.8416 166.662 86.2803 168.221C84.719 169.781 82.6022 170.658 80.3942 170.66Z" fill="#E6E6E6"/>
<path d="M87.302 226.371H67.1081V203.084L40.735 162.692L57.646 151.675L83.9036 191.891C85.7838 194.769 86.8124 198.118 86.8709 201.554L87.302 226.371Z" fill="#E6E6E6"/>
<path d="M51.7137 241.748H32.0289V182.76H51.7137V241.748Z" fill="#E6E6E6"/>
<path d="M76.3562 188.306H32.9489C31.8115 188.305 30.721 187.853 29.9167 187.05C29.1124 186.246 28.6599 185.157 28.6587 184.021V167.887C28.6599 166.751 29.1124 165.662 29.9167 164.859C30.721 164.055 31.8115 163.603 32.9489 163.602H76.3562C77.4937 163.603 78.5842 164.055 79.3885 164.859C80.1928 165.662 80.6452 166.751 80.6465 167.887V184.021C80.6452 185.157 80.1928 186.246 79.3885 187.05C78.5842 187.853 77.4937 188.305 76.3562 188.306Z" fill="#E6E6E6"/>
<path d="M79.2218 121.756H60.5466C60.0781 121.756 59.6287 121.57 59.2974 121.239C58.9661 120.909 58.78 120.46 58.78 119.992C58.78 119.524 58.9661 119.075 59.2974 118.744C59.6287 118.413 60.0781 118.227 60.5466 118.227H79.2218C79.6903 118.227 80.1397 118.413 80.471 118.744C80.8023 119.075 80.9884 119.524 80.9884 119.992C80.9884 120.46 80.8023 120.909 80.471 121.239C80.1397 121.57 79.6903 121.756 79.2218 121.756V121.756Z" fill="white"/>
<path d="M79.2218 128.058H60.5466C60.0781 128.058 59.6287 127.873 59.2974 127.542C58.9661 127.211 58.78 126.762 58.78 126.294C58.78 125.826 58.9661 125.377 59.2974 125.046C59.6287 124.715 60.0781 124.529 60.5466 124.529H79.2218C79.6903 124.529 80.1397 124.715 80.471 125.046C80.8023 125.377 80.9884 125.826 80.9884 126.294C80.9884 126.762 80.8023 127.211 80.471 127.542C80.1397 127.873 79.6903 128.058 79.2218 128.058V128.058Z" fill="white"/>
<path d="M147.361 101.842C152.379 101.842 156.446 97.7786 156.446 92.7667C156.446 87.7547 152.379 83.6917 147.361 83.6917C142.344 83.6917 138.276 87.7547 138.276 92.7667C138.276 97.7786 142.344 101.842 147.361 101.842Z" fill="#E6E6E6"/>
<path d="M150.137 129.319C149.334 129.318 148.565 128.999 147.997 128.432C147.429 127.865 147.11 127.096 147.109 126.294V17.3937C147.109 16.5915 147.428 15.822 147.996 15.2547C148.564 14.6874 149.334 14.3687 150.137 14.3687C150.94 14.3687 151.711 14.6874 152.279 15.2547C152.847 15.822 153.166 16.5915 153.166 17.3937V126.294C153.165 127.096 152.845 127.865 152.278 128.432C151.71 128.999 150.94 129.318 150.137 129.319V129.319Z" fill="#3F3D56"/>
<path d="M242.08 15.2964C239.42 12.9722 230.284 5.73741 218.499 4.4165C209.681 3.43337 199.379 5.75759 189.199 15.9317C181.032 24.0891 173.33 27.956 166.304 27.4317C159.132 26.8923 154.362 21.8002 152.156 18.8105C152.001 18.5967 151.782 18.4383 151.53 18.3584C151.279 18.2785 151.008 18.2815 150.758 18.3668C150.503 18.4468 150.28 18.6066 150.123 18.8227C149.966 19.0388 149.882 19.2996 149.885 19.5667V57.2078C149.885 57.4464 149.953 57.68 150.081 57.8816C150.209 58.0832 150.391 58.2446 150.607 58.3472C153.357 59.648 163.265 63.9687 173.239 63.9687C179.089 63.9687 184.969 62.4814 189.431 58.0195C189.476 57.9741 189.517 57.9338 189.562 57.8935C197.466 50.21 214.89 51.788 227.604 54.2988C232.864 55.3373 237.315 56.5322 239.955 57.2985C240.293 57.396 240.649 57.4137 240.995 57.3501C241.341 57.2865 241.667 57.1435 241.948 56.9322C242.229 56.7209 242.457 56.4473 242.614 56.1329C242.771 55.8184 242.853 55.4719 242.852 55.1205V17.0055C242.853 16.6822 242.784 16.3626 242.651 16.0678C242.518 15.7731 242.323 15.5102 242.08 15.2964V15.2964Z" fill="#4F49AB"/>
<path d="M262.441 122.512C264.95 122.512 266.984 120.481 266.984 117.975C266.984 115.469 264.95 113.438 262.441 113.438C259.932 113.438 257.899 115.469 257.899 117.975C257.899 120.481 259.932 122.512 262.441 122.512Z" fill="white"/>
<path d="M254.365 172.425C256.874 172.425 258.908 170.393 258.908 167.887C258.908 165.382 256.874 163.35 254.365 163.35C251.856 163.35 249.823 165.382 249.823 167.887C249.823 170.393 251.856 172.425 254.365 172.425Z" fill="white"/>
<path d="M239.728 141.167C243.909 141.167 247.299 137.781 247.299 133.604C247.299 129.428 243.909 126.042 239.728 126.042C235.547 126.042 232.157 129.428 232.157 133.604C232.157 137.781 235.547 141.167 239.728 141.167Z" fill="white"/>
</g>
<defs>
<clipPath id="clip0_20_201">
<rect width="322" height="242" fill="white"/>
</clipPath>
</defs>
</svg>
