<svg width="32" height="32" viewBox="0 0 32 32" fill="none" xmlns="http://www.w3.org/2000/svg">
<path d="M16 0C7.2063 0 0 7.2688 0 16.0625C0 24.8052 7.14062 32 16 32C24.8484 32 32 24.8159 32 16.0625C32 7.2688 24.7937 0 16 0ZM18.8125 29.8438C17.9126 30.0312 16.9563 30.125 16 30.125C15.0437 30.125 14.0874 30.0312 13.1875 29.8438V25.4563C13.1875 24.4062 13.4688 24.0312 13.8438 23.5249C14.0347 23.3066 14.1499 23.1108 15.0061 21.8188L13.5625 21.5938C9.84985 21.05 8.38745 19.1187 7.80615 17.6187C7.05615 15.6125 7.44995 13.0999 8.80005 11.5063C9.00635 11.2625 9.17505 10.8499 9.02515 10.4187C8.74365 9.55615 8.78125 8.1875 8.96875 7.66235C9.96289 7.80444 10.9851 8.5166 11.8376 9.03125C12.2305 9.2605 12.4365 9.19995 12.625 9.21875C13.3101 9.07617 14.3787 8.7312 16.0188 8.7312C17.0312 8.7312 18.1001 8.8811 19.1501 9.18115C19.3379 9.17676 19.6396 9.33643 20.1626 9.03125C21.0537 8.48828 22.0413 7.80054 23.0312 7.66235C23.2188 8.1875 23.2563 9.55615 22.9751 10.4187C22.825 10.8499 22.9937 11.2625 23.2002 11.5063C24.55 13.1001 24.9438 15.6125 24.1938 17.6187C23.6125 19.1187 22.1501 21.05 18.4375 21.5938L16.9939 21.8188C17.8789 23.1543 17.9722 23.3145 18.1565 23.5249C18.5313 24.0312 18.8125 24.4062 18.8125 25.4563V29.8438ZM20.6875 29.3V25.4563C20.6875 24.3875 20.4624 23.675 20.1624 23.1499C23.0125 22.3813 25.0376 20.6936 25.9375 18.2749C26.8938 15.7251 26.4626 12.6875 24.8687 10.5874C25.1501 9.3313 25.1501 7.32495 24.4751 6.38745C24.175 5.9751 23.7625 5.75 23.2375 5.75C23.2188 5.75 23.2188 5.75 23.2188 5.75C21.7649 5.82861 20.6206 6.56079 19.3938 7.30615C18.2688 7.0061 17.125 6.8562 15.9812 6.8562C14.8188 6.8562 13.6562 7.0249 12.6252 7.30615C11.3337 6.52734 10.2004 5.82666 8.7063 5.75C8.23755 5.75 7.82495 5.9751 7.5249 6.38745C6.8501 7.32495 6.8501 9.3313 7.13135 10.5874C5.53735 12.6875 5.1062 15.7437 6.0625 18.2749C6.9624 20.6936 8.98755 22.3813 11.8376 23.1499C11.605 23.5569 11.4209 24.082 11.3484 24.7927C10.7727 24.9912 10.2734 25.0559 9.80908 24.9194C9.31934 24.7747 8.93774 24.4478 8.6062 23.8901C7.86157 22.6392 6.59326 21.6179 5.14917 21.7507L5.31396 23.6184C5.98267 23.5571 6.64819 24.2646 6.9939 24.8479C7.56421 25.8083 8.33252 26.4382 9.27808 26.7175C9.97998 26.9243 10.6216 26.9194 11.3125 26.772V29.3C5.8562 27.3875 1.875 22.175 1.875 16.0625C1.875 8.30005 8.23755 1.875 16 1.875C23.7625 1.875 30.125 8.30005 30.125 16.0625C30.125 22.175 26.1438 27.3875 20.6875 29.3Z" fill="#DBDBDB"/>
</svg>
