<svg width="420" height="379" viewBox="0 0 420 379" fill="none" xmlns="http://www.w3.org/2000/svg">
<g clip-path="url(#clip0_5_31)">
<path d="M339.65 158.198C343.489 177.399 340.296 197.807 332.533 216.059C332.209 216.823 331.876 217.582 331.536 218.337C330.771 220.035 329.968 221.716 329.127 223.379C328.101 225.425 327.02 227.444 325.884 229.438C324.964 231.075 324.004 232.693 323.007 234.291C322.24 235.535 321.455 236.763 320.653 237.976C311.022 252.625 298.889 265.836 285.964 278.011C260.738 301.766 231.515 322.475 197.969 333.35C164.427 344.22 126.122 344.429 94.5867 328.911C52.0869 308 27.9457 260.578 29.2149 214.932C30.0569 184.566 41.1472 154.323 61.5216 131.048C81.72 107.975 111.12 92.14 142.424 88.9347C162.184 68.6657 193.334 60.0209 222.299 63.3275C237.755 65.093 252.579 69.9068 266.381 76.8265C272.704 80.005 278.799 83.5831 284.625 87.5369C285.219 87.9363 285.81 88.3413 286.398 88.7519C288.855 90.4549 291.266 92.2188 293.631 94.0434C297.025 96.6596 300.318 99.3813 303.509 102.208C304.387 102.987 305.262 103.772 306.126 104.568C306.706 105.103 307.292 105.641 307.87 106.186C307.882 106.197 307.893 106.21 307.901 106.224C316.964 114.786 325.123 124.328 331.057 134.998C332.106 136.887 333.084 138.803 333.981 140.76L333.982 140.765C334.752 142.423 335.46 144.106 336.107 145.816C337.633 149.846 338.818 153.987 339.65 158.198V158.198Z" fill="#3F3D56"/>
<path opacity="0.3" d="M259.15 210.383L175.723 174.686L257.861 213.055C258.049 213.226 258.276 213.352 258.524 213.422C258.772 213.492 259.034 213.504 259.288 213.458C259.542 213.412 259.781 213.308 259.985 213.156C260.188 213.004 260.351 212.808 260.459 212.583C260.567 212.359 260.618 212.113 260.607 211.866C260.596 211.619 260.523 211.378 260.395 211.163C260.268 210.948 260.088 210.765 259.871 210.629C259.655 210.493 259.408 210.409 259.15 210.383V210.383Z" fill="#F0F0F0"/>
<path d="M96.1875 224.553C118.547 218.553 131.553 196.35 125.237 174.961C118.921 153.572 95.675 141.096 73.3152 147.096C50.9554 153.096 37.9493 175.299 44.2653 196.688C50.5813 218.077 73.8277 230.552 96.1875 224.553Z" fill="#F2F2F2"/>
<path d="M119.917 173.571C121.285 178.199 121.685 183.039 121.097 187.812C120.508 192.585 118.941 197.199 116.486 201.391C114.031 205.582 110.735 209.268 106.788 212.239C102.84 215.21 98.3178 217.407 93.4788 218.705C89.1652 219.86 84.6727 220.286 80.203 219.966C73.2122 219.458 66.4977 217.126 60.7906 213.224C55.0834 209.323 50.6023 204.001 47.8351 197.838C45.0679 191.675 44.1207 184.908 45.0967 178.273C46.0726 171.637 48.9342 165.389 53.37 160.207C57.8058 155.025 63.6457 151.108 70.254 148.884C76.8622 146.659 83.9855 146.211 90.8483 147.589C97.7111 148.968 104.05 152.119 109.176 156.7C114.301 161.281 118.017 167.116 119.917 173.571V173.571Z" fill="white"/>
<path d="M76.445 184.296C82.7259 182.611 86.3793 176.374 84.6051 170.366C82.8309 164.358 76.3011 160.853 70.0202 162.539C63.7394 164.224 60.086 170.461 61.8601 176.469C63.6343 182.477 70.1642 185.981 76.445 184.296Z" fill="#E4E4E4"/>
<path d="M115.593 164.179C113.463 165.974 110.726 166.975 107.884 166.997C105.042 167.019 102.285 166.061 100.118 164.298C97.9518 162.536 96.5207 160.087 96.0873 157.4C95.6539 154.714 96.2473 151.97 97.7588 149.671C105.137 152.614 111.372 157.686 115.593 164.179Z" fill="#F2F2F2"/>
<path d="M99.9787 195.827C102.24 195.221 103.555 192.975 102.916 190.813C102.278 188.65 99.9269 187.388 97.6658 187.995C95.4047 188.601 94.0895 190.847 94.7282 193.01C95.3669 195.173 97.7176 196.434 99.9787 195.827Z" fill="#E4E4E4"/>
<path d="M88.5443 218.62C88.6456 218.964 88.6992 219.319 88.704 219.676C85.8915 220.08 83.0396 220.177 80.2029 219.966C80.1374 218.964 80.4618 217.974 81.1137 217.188C81.7656 216.402 82.6989 215.875 83.7342 215.708C84.7694 215.541 85.8334 215.746 86.7214 216.283C87.6094 216.821 88.2587 217.653 88.5443 218.62Z" fill="#F2F2F2"/>
<path d="M53.898 189.407C54.4845 191.394 54.2597 193.518 53.2693 195.35C52.2789 197.182 50.5967 198.584 48.5634 199.273C46.0979 194.352 44.8042 188.971 44.7754 183.519C46.7769 183.311 48.792 183.788 50.4623 184.866C52.1327 185.944 53.35 187.553 53.898 189.407Z" fill="#F2F2F2"/>
<path d="M252.142 122.784C253.072 122.535 253.613 121.611 253.35 120.721C253.088 119.832 252.121 119.313 251.19 119.562C250.26 119.812 249.719 120.735 249.982 121.625C250.245 122.515 251.212 123.034 252.142 122.784Z" fill="#6C63FF"/>
<path d="M225.031 87.7576C225.574 87.6117 225.89 87.0721 225.737 86.5523C225.583 86.0324 225.019 85.7292 224.475 85.875C223.932 86.0208 223.616 86.5605 223.769 87.0803C223.923 87.6002 224.488 87.9034 225.031 87.7576Z" fill="#F0F0F0"/>
<path d="M121.663 314.616C122.207 314.47 122.523 313.931 122.369 313.411C122.216 312.891 121.651 312.588 121.107 312.734C120.564 312.879 120.248 313.419 120.401 313.939C120.555 314.459 121.12 314.762 121.663 314.616Z" fill="#F0F0F0"/>
<path d="M257.812 178.356C258.356 178.211 258.672 177.671 258.518 177.151C258.365 176.631 257.8 176.328 257.256 176.474C256.713 176.62 256.397 177.159 256.55 177.679C256.704 178.199 257.269 178.502 257.812 178.356Z" fill="#F0F0F0"/>
<path d="M133.464 221.316C134.394 221.066 134.935 220.142 134.672 219.253C134.409 218.363 133.442 217.844 132.512 218.094C131.582 218.343 131.041 219.267 131.304 220.157C131.566 221.046 132.533 221.565 133.464 221.316Z" fill="#6C63FF"/>
<path d="M82.7585 272.388C87.1508 271.21 89.7057 266.848 88.465 262.647C87.2243 258.445 82.6578 255.994 78.2655 257.173C73.8731 258.351 71.3182 262.713 72.5589 266.914C73.7997 271.116 78.3661 273.567 82.7585 272.388Z" fill="#6C63FF"/>
<path d="M126.891 262.493C127.435 262.347 127.751 261.808 127.597 261.288C127.444 260.768 126.879 260.465 126.335 260.611C125.792 260.757 125.476 261.296 125.629 261.816C125.783 262.336 126.348 262.639 126.891 262.493Z" fill="#F0F0F0"/>
<path d="M183.538 88.5593C184.081 88.4135 184.397 87.8738 184.244 87.354C184.09 86.8342 183.525 86.531 182.982 86.6768C182.438 86.8226 182.122 87.3622 182.276 87.8821C182.429 88.4019 182.994 88.7051 183.538 88.5593Z" fill="#F0F0F0"/>
<path d="M184.092 304.909C184.636 304.764 184.952 304.224 184.798 303.704C184.645 303.184 184.08 302.881 183.536 303.027C182.993 303.173 182.677 303.712 182.83 304.232C182.984 304.752 183.549 305.055 184.092 304.909Z" fill="#F0F0F0"/>
<path d="M112.869 116.914C113.412 116.768 113.728 116.228 113.575 115.709C113.421 115.189 112.856 114.886 112.313 115.031C111.769 115.177 111.453 115.717 111.607 116.237C111.76 116.756 112.325 117.06 112.869 116.914Z" fill="#F0F0F0"/>
<path d="M151.835 155.769C152.379 155.624 152.695 155.084 152.541 154.564C152.388 154.044 151.823 153.741 151.279 153.887C150.736 154.033 150.42 154.572 150.573 155.092C150.727 155.612 151.292 155.915 151.835 155.769Z" fill="#F0F0F0"/>
<path d="M145.947 278.347C146.491 278.201 146.807 277.662 146.653 277.142C146.5 276.622 145.935 276.319 145.391 276.464C144.848 276.61 144.532 277.15 144.685 277.67C144.839 278.19 145.404 278.493 145.947 278.347Z" fill="#F0F0F0"/>
<path d="M262.836 253.558C263.379 253.412 263.695 252.873 263.542 252.353C263.388 251.833 262.823 251.53 262.28 251.676C261.736 251.821 261.42 252.361 261.574 252.881C261.727 253.401 262.292 253.704 262.836 253.558Z" fill="#F0F0F0"/>
<path d="M195.696 212.4C196.24 212.254 196.556 211.714 196.403 211.194C196.249 210.675 195.684 210.371 195.141 210.517C194.597 210.663 194.281 211.203 194.435 211.723C194.588 212.242 195.153 212.546 195.696 212.4Z" fill="#F0F0F0"/>
<path d="M202.865 141.91C203.409 141.765 203.725 141.225 203.571 140.705C203.418 140.185 202.853 139.882 202.309 140.028C201.766 140.174 201.45 140.713 201.603 141.233C201.757 141.753 202.322 142.056 202.865 141.91Z" fill="#F0F0F0"/>
<path d="M259.283 160.673C260.36 160.384 260.987 159.314 260.682 158.283C260.378 157.253 259.258 156.652 258.18 156.941C257.103 157.23 256.476 158.3 256.78 159.33C257.085 160.361 258.205 160.962 259.283 160.673Z" fill="#FF6584"/>
<path d="M161.884 120.12C162.961 119.831 163.588 118.761 163.283 117.73C162.979 116.7 161.859 116.099 160.781 116.388C159.704 116.677 159.077 117.747 159.381 118.777C159.686 119.808 160.806 120.409 161.884 120.12Z" fill="#FF6584"/>
<path d="M199.79 248.49C200.867 248.201 201.494 247.131 201.19 246.1C200.885 245.069 199.765 244.468 198.688 244.757C197.61 245.046 196.983 246.116 197.288 247.147C197.592 248.178 198.712 248.779 199.79 248.49Z" fill="#FF6584"/>
<path d="M323.969 224.763C323.209 224.968 322.54 225.403 322.063 226.004C321.586 226.605 321.326 227.338 321.324 228.093C321.32 228.417 321.366 228.741 321.46 229.052L323.007 234.291C324.003 232.695 324.962 231.077 325.884 229.438C327.018 227.443 328.099 225.424 329.127 223.379L323.969 224.763Z" fill="#6C63FF"/>
<path d="M344.394 248.663C338.52 250.239 332.019 251.754 324.892 253.208C288.026 260.726 238.856 265.664 186.441 267.115C134.025 268.565 84.6248 266.353 47.3412 260.887C29.1792 258.224 14.8707 254.93 4.8135 251.096C-5.83435 247.036 -11.3136 242.478 -11.4724 237.548C-11.7813 227.943 8.37447 220.415 25.3375 215.792L25.7288 217.095C2.43402 223.445 -10.2741 230.694 -10.0547 237.509C-9.77566 246.188 11.2218 254.22 47.5537 259.547C84.7553 265.001 134.064 267.207 186.397 265.759C238.73 264.311 287.809 259.383 324.594 251.882C360.518 244.557 380.962 235.377 380.683 226.698C380.451 219.492 365.94 212.679 339.822 207.513L340.107 206.185C359.084 209.939 381.775 216.538 382.1 226.659C382.259 231.589 377.082 236.442 366.715 241.083C360.804 243.728 353.334 246.264 344.394 248.663Z" fill="#6C63FF"/>
<path d="M313.805 151.838C339.054 145.063 353.74 119.991 346.608 95.8381C339.476 71.6852 313.226 57.5976 287.977 64.3724C262.728 71.1473 248.041 96.2192 255.173 120.372C262.305 144.525 288.556 158.613 313.805 151.838Z" fill="white"/>
<path d="M287.784 63.7197C278.607 66.1821 270.405 71.1924 264.215 78.1169C258.024 85.0414 254.124 93.5692 253.007 102.622C251.89 111.675 253.607 120.846 257.939 128.975C262.272 137.105 269.027 143.828 277.349 148.294C285.671 152.76 295.187 154.769 304.693 154.066C314.2 153.364 323.27 149.982 330.756 144.347C338.242 138.713 343.809 131.08 346.752 122.412C349.695 113.745 349.883 104.434 347.29 95.655C345.589 89.8145 342.697 84.3513 338.78 79.5804C334.863 74.8094 329.999 70.8249 324.468 67.8564C318.936 64.8879 312.847 62.9942 306.551 62.2842C300.256 61.5742 293.877 62.0621 287.784 63.7197V63.7197ZM313.612 151.185C304.705 153.575 295.252 153.385 286.448 150.638C277.644 147.892 269.885 142.712 264.152 135.755C258.419 128.798 254.969 120.375 254.239 111.552C253.509 102.729 255.532 93.9024 260.051 86.1876C264.57 78.4728 271.383 72.2167 279.628 68.2104C287.873 64.2041 297.18 62.6275 306.372 63.6801C315.564 64.7327 324.228 68.3671 331.268 74.1238C338.309 79.8804 343.41 87.5008 345.926 96.0212C347.621 101.679 348.129 107.599 347.42 113.44C346.712 119.282 344.8 124.93 341.796 130.058C338.792 135.186 334.755 139.693 329.918 143.319C325.081 146.945 319.539 149.618 313.612 151.185V151.185Z" fill="#2F2E41"/>
<path d="M263.864 129.345C263.654 129.4 263.431 129.386 263.231 129.302C263.032 129.219 262.868 129.073 262.768 128.888C259.579 122.867 257.874 116.23 257.784 109.486C257.694 102.742 259.221 96.0711 262.248 89.985C262.359 89.7704 262.553 89.6064 262.79 89.529C263.026 89.4517 263.286 89.4672 263.511 89.5722C263.736 89.6772 263.908 89.8631 263.99 90.0892C264.072 90.3153 264.058 90.5632 263.949 90.7785C261.048 96.6108 259.584 103.004 259.67 109.466C259.757 115.929 261.391 122.289 264.447 128.059C264.511 128.179 264.547 128.31 264.552 128.444C264.557 128.578 264.53 128.712 264.474 128.835C264.419 128.958 264.335 129.067 264.229 129.156C264.124 129.244 263.999 129.308 263.864 129.345L263.864 129.345Z" fill="#2F2E41"/>
<path d="M312.86 148.743C328.908 144.437 338.243 128.501 333.709 113.15C329.176 97.7985 312.492 88.8445 296.444 93.1505C280.396 97.4566 271.061 113.392 275.594 128.743C280.127 144.095 296.812 153.049 312.86 148.743Z" fill="#6C63FF"/>
<path d="M298.516 133.919C296.617 134.374 294.254 134.941 292.076 134.163C291.423 133.916 290.833 133.536 290.35 133.049C289.866 132.561 289.499 131.979 289.275 131.343C289.107 130.893 289.05 130.412 289.108 129.938C289.167 129.463 289.339 129.009 289.612 128.609C290.33 127.594 291.655 127.045 293.262 127.064L288.55 116.726L289.635 116.275L295.175 128.429L294.11 128.268C292.876 128.082 291.303 128.241 290.593 129.244C290.423 129.503 290.317 129.796 290.284 130.1C290.251 130.404 290.291 130.712 290.403 130.999C290.572 131.472 290.846 131.904 291.206 132.267C291.566 132.63 292.003 132.915 292.488 133.102C294.184 133.707 296.089 133.333 298.225 132.821L298.516 133.919Z" fill="#2F2E41"/>
<path d="M283.24 119.151L277.103 120.798L277.425 121.888L283.562 120.241L283.24 119.151Z" fill="#2F2E41"/>
<path d="M302.612 113.954L296.475 115.6L296.797 116.69L302.934 115.044L302.612 113.954Z" fill="#2F2E41"/>
<path d="M316.109 155.286L289.77 162.354C288.789 162.618 287.958 163.244 287.46 164.094C286.962 164.945 286.837 165.95 287.114 166.889L303.603 222.732C304.724 226.516 306.904 229.936 309.91 232.623C312.915 235.31 316.63 237.161 320.653 237.976C321.459 236.764 322.243 235.536 323.007 234.291C324.003 232.695 324.962 231.077 325.884 229.438C327.018 227.443 328.099 225.424 329.127 223.379C329.971 221.715 330.774 220.035 331.536 218.337C331.878 217.583 332.21 216.824 332.533 216.059C340.296 197.807 343.489 177.399 339.65 158.198C336.131 156.222 332.232 154.946 328.186 154.445C324.141 153.945 320.033 154.231 316.109 155.286Z" fill="#2F2E41"/>
<path d="M320.51 166.682C319.71 166.263 318.832 166 317.926 165.907C317.019 165.814 316.103 165.893 315.23 166.141C313.709 166.561 312.389 167.473 311.495 168.721C311.35 168.916 311.218 169.119 311.1 169.329L295.787 196.262L284.682 215.796C284.512 216.089 284.393 216.406 284.331 216.736C284.229 217.247 284.255 217.774 284.407 218.274C284.533 218.685 284.744 219.068 285.026 219.401C285.308 219.734 285.656 220.011 286.05 220.214L286.834 220.624L292.519 223.584L292.522 223.578C293.259 223.882 294.082 223.932 294.852 223.719C295.281 223.598 295.681 223.398 296.029 223.129C296.377 222.86 296.665 222.528 296.878 222.151L297.393 221.252L301.07 214.785L301.193 214.569L323.297 175.688C324.176 174.143 324.376 172.326 323.853 170.637C323.33 168.948 322.128 167.526 320.51 166.682L320.51 166.682Z" fill="#6C63FF"/>
<path d="M302.784 107.453C303.171 105.251 301.573 103.439 299.518 102.651C296.929 101.657 294.255 102.654 292.055 104.043C289.646 105.565 287.487 107.718 284.601 108.402C283.576 108.658 282.494 108.613 281.495 108.271C280.497 107.929 279.629 107.307 279.006 106.486C276.364 103.138 276.853 98.4716 278.679 94.9047C279.703 92.868 281.181 91.0711 283.01 89.6404C284.839 88.2097 286.974 87.1798 289.265 86.6231C291.899 86.0495 294.642 86.1081 297.248 86.7936C299.855 87.4792 302.245 88.7705 304.205 90.5523C304.343 90.673 304.524 90.7385 304.71 90.7355C304.897 90.7325 305.075 90.6611 305.208 90.536C306.977 89.1269 309.021 88.0676 311.222 87.4194C313.424 86.7712 315.738 86.5469 318.033 86.7595C321.492 87.1367 324.751 88.5108 327.377 90.6993C330.003 92.8879 331.872 95.7873 332.736 99.0125C332.962 99.8589 334.326 99.4923 334.101 98.6463C332.864 94.1453 329.856 90.2725 325.706 87.8374C323.607 86.631 321.278 85.8387 318.856 85.5072C316.433 85.1757 313.967 85.3118 311.602 85.9074C308.868 86.5812 306.332 87.8418 304.186 89.5936L305.189 89.5773C303.374 87.9267 301.217 86.6594 298.857 85.8581C296.497 85.0568 293.988 84.7394 291.494 84.9265C289.031 85.1366 286.645 85.8509 284.498 87.0207C282.351 88.1906 280.493 89.7887 279.05 91.7066C276.321 95.2693 274.868 100.052 276.322 104.372C276.951 106.242 278.111 108.023 279.897 109.063C282.185 110.395 284.899 110.003 287.184 108.891C290.222 107.414 292.562 104.6 295.936 103.762C296.593 103.586 297.283 103.546 297.958 103.643C298.634 103.741 299.28 103.975 299.855 104.329C300.829 104.928 301.614 105.956 301.411 107.11C301.261 107.965 302.633 108.313 302.784 107.453L302.784 107.453Z" fill="#2F2E41"/>
<path d="M131.365 322.929C115.171 327.275 99.9592 330.783 86.1648 333.326C68.134 336.651 53.5083 338.142 42.6948 337.76C31.2457 337.354 24.4864 334.818 22.6045 330.222C18.9382 321.27 35.2646 307.7 49.6063 297.893L50.4327 298.996C30.7378 312.464 21.3238 323.378 23.9249 329.73C27.2377 337.82 49.8243 338.646 85.8936 331.995C122.827 325.185 170.014 311.425 218.763 293.248C267.513 275.073 311.977 254.662 343.965 235.775C375.205 217.331 391.222 202.112 387.909 194.022C385.158 187.306 369.105 185.546 342.707 189.067L342.508 187.724C361.69 185.165 385.366 184.096 389.229 193.53C391.111 198.126 387.944 204.363 379.816 212.067C372.139 219.344 360.328 227.709 344.712 236.929C312.653 255.858 268.107 276.307 219.281 294.512C188.651 305.932 158.624 315.615 131.365 322.929Z" fill="#6C63FF"/>
<path d="M388.489 198.807C392.882 197.629 395.437 193.267 394.196 189.066C392.955 184.864 388.389 182.413 383.996 183.592C379.604 184.77 377.049 189.132 378.29 193.334C379.531 197.535 384.097 199.986 388.489 198.807Z" fill="#6C63FF"/>
<path d="M104.272 79.2337C108.665 78.0551 111.22 73.6936 109.979 69.4919C108.738 65.2903 104.172 62.8396 99.7795 64.0182C95.3871 65.1967 92.8322 69.5582 94.0729 73.7599C95.3136 77.9615 99.8801 80.4122 104.272 79.2337Z" fill="#E6E6E6"/>
<path d="M15.7982 298.339C20.1905 297.16 22.7454 292.799 21.5047 288.597C20.264 284.396 15.6975 281.945 11.3052 283.123C6.91284 284.302 4.35794 288.663 5.59864 292.865C6.83935 297.067 11.4058 299.517 15.7982 298.339Z" fill="#E6E6E6"/>
<path d="M22.2948 140.782C24.9836 140.06 26.5476 137.391 25.7881 134.818C25.0286 132.246 22.2332 130.746 19.5444 131.468C16.8556 132.189 15.2916 134.859 16.0511 137.431C16.8106 140.003 19.606 141.503 22.2948 140.782Z" fill="#FF6584"/>
<path d="M51.7192 323.556C54.408 322.835 55.972 320.165 55.2125 317.593C54.453 315.02 51.6576 313.52 48.9688 314.242C46.28 314.963 44.716 317.633 45.4755 320.205C46.2351 322.777 49.0304 324.277 51.7192 323.556Z" fill="#FF6584"/>
<path d="M361.309 158.301C363.998 157.58 365.562 154.91 364.802 152.338C364.043 149.766 361.248 148.265 358.559 148.987C355.87 149.708 354.306 152.378 355.065 154.95C355.825 157.522 358.62 159.023 361.309 158.301Z" fill="#FF6584"/>
<path d="M321.767 293.729C326.16 292.551 328.714 288.189 327.474 283.988C326.233 279.786 321.667 277.335 317.274 278.514C312.882 279.692 310.327 284.054 311.568 288.256C312.808 292.457 317.375 294.908 321.767 293.729Z" fill="#E6E6E6"/>
</g>
<defs>
<clipPath id="clip0_5_31">
<rect width="403.14" height="285.877" fill="white" transform="matrix(0.965836 -0.259155 0.283202 0.95906 -51 104.476)"/>
</clipPath>
</defs>
</svg>
