<svg width="321" height="285" viewBox="0 0 321 285" fill="none" xmlns="http://www.w3.org/2000/svg">
<g clip-path="url(#clip0_5_79)">
<path d="M218.027 227.636L221.289 234.34C218.637 233.953 216.171 236.028 216.116 238.693C216.061 241.358 218.426 244.131 221.077 244.51C220.57 246.579 218.384 247.492 216.485 248.328C214.587 249.164 212.541 250.551 212.682 252.756C212.796 254.527 214.393 256.09 216.089 256.718C217.786 257.346 219.566 257.25 221.284 257.144C218.68 259.64 218.427 264.332 220.713 267.697C222.999 271.063 227.565 272.72 230.984 271.424C228.568 274.178 229.093 279.222 232.091 282.064C235.113 284.929 239.493 285.206 243.322 284.904C253.073 284.149 262.364 280.774 270.032 275.203C272.959 273.072 275.693 270.565 277.363 267.295C279.033 264.024 279.525 259.884 277.97 256.163C278.389 260.824 283.48 264.506 288.06 264.712C292.641 264.918 296.639 262.554 300.038 259.858C304.557 256.273 308.741 251.247 308.121 245.045C307.814 241.976 306.351 239.023 304.916 236.163L302.134 230.619C301.011 228.38 299.862 226.104 298.172 224.226C296.481 222.348 294.135 220.894 291.787 220.907C292.324 218.66 292.863 216.328 292.413 213.94C291.963 211.552 290.241 209.079 287.898 208.519C284.916 207.808 282.389 210.329 279.391 210.092C276.505 209.863 274.121 207.209 271.319 206.157C270.165 205.7 268.891 205.561 267.652 205.758C266.414 205.954 265.265 206.477 264.346 207.263C262.57 208.852 261.829 211.537 262.467 214.077C263.025 216.303 264.511 218.266 265.413 220.412C266.315 222.558 266.455 225.318 264.722 226.49C262.632 227.905 259.451 225.98 257.818 223.651C256.185 221.323 255.247 218.503 253.182 216.545C250.745 214.233 246.93 213.692 244.42 215.301C241.911 216.91 240.951 220.513 242.216 223.576C243.251 226.08 245.62 228.614 244.799 230.972C243.93 233.465 240.129 233.149 237.837 231.387C235.544 229.626 234.022 226.973 231.758 225.172C229.458 223.343 226.455 222.541 223.818 223.053C222.481 223.337 221.243 223.926 220.219 224.764C219.195 225.603 218.418 226.664 217.96 227.85" fill="#E6E6E6"/>
<path d="M270.838 208.799L264.07 211.681C263.053 212.142 261.899 212.284 260.785 212.087C259.802 211.874 259.138 211.323 258.964 210.576L257.389 203.835C257.092 202.563 258.241 201.058 260.121 200.258L263.859 198.666C265.74 197.865 267.735 198.031 268.604 199.059L273.21 204.51C273.721 205.114 273.752 205.934 273.296 206.76C272.741 207.667 271.878 208.384 270.838 208.799V208.799Z" fill="#3F3D56"/>
<path d="M60.973 84.2067C67.3358 68.2462 77.2654 53.6794 90.1259 41.4391C101.037 31.0583 118.018 31.4896 118.018 31.4896L118.115 31.3793C122.202 26.7604 127.686 23.3504 133.88 21.5772C140.074 19.8039 146.701 19.7465 152.93 21.412C154.549 21.8378 155.794 22.0265 156.386 21.8369C167.185 18.3732 166.678 10.5554 175.994 4.25749C192.307 -6.76984 246.415 5.86175 254.045 26.1534C260.229 42.5992 287.832 50.5704 298.144 63.1502C299.757 65.1172 301.339 67.107 302.891 69.1196C303.618 70.0546 304.338 70.9966 305.049 71.9457C312.355 81.6429 318.91 91.7982 324.665 102.337C328.438 109.222 331.718 116.325 334.483 123.602C345.237 152.416 341.56 173.884 311.905 168.58C308.395 167.951 304.969 167.388 301.627 166.891C296.788 166.167 292.118 165.572 287.617 165.107C281.555 164.475 275.788 164.061 270.316 163.865C268.476 163.797 266.669 163.751 264.897 163.728C238.69 163.395 219.25 167.916 204.441 174.933C201.931 176.12 199.552 177.375 197.304 178.699C193.871 180.71 190.593 182.935 187.494 185.359C183.205 188.732 179.249 192.447 175.674 196.459L175.478 196.679C158.156 216.097 152.455 237.594 140.407 241.379C88.9005 257.561 56.3251 198.899 52.9844 141.516C52.8157 138.624 52.7225 135.741 52.7048 132.866C52.6944 131.581 52.7013 130.299 52.7255 129.021C52.7784 125.686 52.9388 122.372 53.2074 119.099C53.3078 117.847 53.4241 116.603 53.5565 115.364C53.7024 114.029 53.8612 112.702 54.0446 111.383C55.3549 101.714 57.6471 92.5147 60.973 84.2067Z" fill="#3F3D56"/>
<path d="M220.616 115.779C216.503 117.534 216.435 125.395 217.725 127.943L220.062 132.553L234.962 126.209L232.624 121.598C231.332 119.052 224.733 114.03 220.616 115.779Z" fill="#3F3D56"/>
<path d="M180.578 181.975C180.315 181.975 180.057 181.917 179.825 181.806C179.592 181.695 179.392 181.534 179.242 181.337C179.092 181.14 178.995 180.913 178.961 180.675C178.927 180.436 178.957 180.194 179.047 179.969C179.12 179.784 179.232 179.615 179.376 179.47C179.521 179.326 179.696 179.209 179.89 179.127L256.835 146.364C257.029 146.281 257.239 146.234 257.453 146.226C257.666 146.217 257.88 146.248 258.081 146.315C258.282 146.382 258.466 146.485 258.624 146.618C258.781 146.751 258.909 146.91 258.999 147.088C259.18 147.447 259.199 147.858 259.051 148.229C258.902 148.601 258.599 148.904 258.208 149.071H258.208L181.263 181.835C181.048 181.927 180.814 181.975 180.578 181.975V181.975Z" fill="#3F3D56"/>
<path d="M240.766 129.149L218.771 138.515L253.273 206.572L275.267 197.206L240.766 129.149Z" fill="#E6E6E6"/>
<path d="M158.2 43.4772C154.087 45.2324 154.019 53.0938 155.309 55.6411L157.646 60.2517L172.546 53.9075L170.209 49.2968C168.916 46.7506 162.317 41.7281 158.2 43.4772Z" fill="#3F3D56"/>
<path d="M250.365 216.623L243.597 219.505C242.58 219.965 241.426 220.108 240.312 219.911C239.329 219.698 238.665 219.147 238.491 218.4L236.916 211.658C236.618 210.387 237.768 208.882 239.648 208.081L243.386 206.49C245.266 205.689 247.262 205.855 248.131 206.883L252.737 212.334C253.247 212.938 253.278 213.758 252.822 214.584C252.268 215.491 251.405 216.207 250.365 216.623V216.623Z" fill="#3F3D56"/>
<path d="M229.556 226.085L222.788 228.967C221.771 229.427 220.617 229.57 219.503 229.372C218.52 229.159 217.856 228.609 217.682 227.861L216.107 221.12C215.81 219.849 216.959 218.344 218.839 217.543L222.577 215.952C224.458 215.151 226.453 215.316 227.322 216.345L231.928 221.795C232.439 222.4 232.47 223.22 232.014 224.045C231.46 224.953 230.596 225.669 229.556 226.085V226.085Z" fill="#3F3D56"/>
<path d="M184.219 68.4244L162.224 77.7898L231.965 215.359L253.96 205.993L184.219 68.4244Z" fill="#E6E6E6"/>
<path d="M207.04 139.341L204.572 134.364L205.993 133.763L208.453 138.725L244.081 211.122L242.662 211.727" fill="#3F3D56"/>
<path d="M234.876 135.204L232.408 130.227L233.828 129.626L236.289 134.588L271.917 206.986L270.498 207.59" fill="#3F3D56"/>
<path d="M194.6 79.4338L164.799 92.1235C162.901 89.4182 157.182 75.5551 158.466 71.442L157.502 67.5196L178.079 58.7576L180.833 61.8628C184.922 63.0125 192.881 76.0337 194.6 79.4338Z" fill="#E6E6E6"/>
<path d="M178.939 58.9254L157.704 67.9673C156.921 68.301 156.086 68.1783 155.84 67.6932C155.805 67.6233 155.783 67.5483 155.775 67.4716L154.676 56.7267C154.629 56.2666 155.059 55.7452 155.715 55.4658L169.797 49.4695C170.453 49.1901 171.165 49.2255 171.518 49.5552L179.77 57.2546C180.192 57.6484 179.963 58.3224 179.258 58.7602C179.157 58.823 179.05 58.8783 178.939 58.9254V58.9254Z" fill="#E6E6E6"/>
<path d="M195.594 143.108C195.364 143.108 195.135 143.084 194.912 143.034C194.597 142.974 194.301 142.849 194.047 142.668C193.793 142.487 193.587 142.256 193.446 141.991L180.464 116.383C179.926 115.322 180.648 113.967 182.071 113.36L201.081 105.266C202.505 104.659 204.101 105.029 204.638 106.089L217.621 131.697C217.75 131.967 217.811 132.26 217.798 132.555C217.785 132.849 217.698 133.137 217.545 133.397C217.212 133.983 216.672 134.45 216.013 134.72L197.003 142.814C196.562 143.004 196.081 143.105 195.594 143.108Z" fill="#2F2D43"/>
<path d="M198.194 146.984L176.199 156.349L210.701 224.406L232.695 215.041L198.194 146.984Z" fill="#E6E6E6"/>
<path d="M171.097 60.048L164.647 62.7945C163.402 63.3244 161.723 62.4413 160.904 60.8261C160.085 59.2109 160.432 57.4652 161.676 56.9352L168.126 54.1887C169.371 53.6587 171.05 54.5419 171.869 56.1571C172.688 57.7723 172.341 59.518 171.097 60.048Z" fill="#3F3D56"/>
<path d="M178.473 133.431C174.36 135.186 174.292 143.047 175.582 145.595L177.919 150.205L192.819 143.861L190.482 139.25C189.189 136.704 182.59 131.681 178.473 133.431Z" fill="#3F3D56"/>
<path d="M110.145 117.738C108.692 118.626 107.205 116.514 108.686 115.666C110.139 114.779 111.626 116.891 110.145 117.738Z" fill="#E6E6E6"/>
<path d="M261.361 87.4011C259.908 88.2882 258.421 86.1769 259.902 85.3292C261.355 84.4421 262.842 86.5535 261.361 87.4011Z" fill="#E6E6E6"/>
<path d="M158.293 111.533C156.841 112.42 155.354 110.309 156.834 109.461C158.287 108.574 159.774 110.685 158.293 111.533Z" fill="#E6E6E6"/>
<path d="M110.145 194.271C108.692 195.158 107.205 193.047 108.686 192.199C110.139 191.312 111.626 193.424 110.145 194.271Z" fill="#E6E6E6"/>
<path d="M184.248 21.5553C182.796 22.4424 181.309 20.3311 182.789 19.4834C184.242 18.5963 185.729 20.7077 184.248 21.5553Z" fill="#E6E6E6"/>
<path d="M112.778 62.2349C111.325 63.122 109.839 61.0107 111.319 60.163C112.772 59.2759 114.259 61.3873 112.778 62.2349Z" fill="#E6E6E6"/>
<path d="M215.574 50.5729L214.65 50.3871L214.852 49.5397L214.236 49.4159L214.033 50.2633L213.109 50.0778L212.974 50.6425L213.898 50.8283L213.696 51.6754L214.312 51.7991L214.515 50.9518L215.439 51.1376L215.574 50.5729Z" fill="#E6E6E6"/>
<path d="M65.074 121.169L64.1498 120.983L64.3522 120.136L63.736 120.012L63.5333 120.859L62.6087 120.673L62.4736 121.238L63.3982 121.424L63.1959 122.271L63.812 122.395L64.0148 121.548L64.939 121.733L65.074 121.169Z" fill="#E6E6E6"/>
<path d="M254.616 157.18C253.847 157.506 252.968 157.54 252.171 157.273C251.375 157.006 250.727 156.461 250.369 155.757L246.565 148.253C246.209 147.549 246.173 146.743 246.464 146.014C246.756 145.285 247.351 144.692 248.119 144.365C248.888 144.037 249.766 144.003 250.562 144.269C251.358 144.535 252.006 145.08 252.364 145.784L256.168 153.288C256.525 153.992 256.561 154.798 256.27 155.528C255.979 156.257 255.384 156.852 254.616 157.18V157.18Z" fill="#3F3D56"/>
<path d="M189.916 184.759C189.147 185.086 188.268 185.119 187.472 184.853C186.676 184.586 186.028 184.041 185.67 183.336L181.866 175.833C181.51 175.128 181.473 174.323 181.765 173.594C182.056 172.864 182.651 172.271 183.42 171.944C184.188 171.617 185.067 171.582 185.863 171.849C186.659 172.115 187.307 172.66 187.665 173.363L191.469 180.867C191.825 181.572 191.862 182.378 191.571 183.107C191.28 183.837 190.685 184.431 189.916 184.759Z" fill="#3F3D56"/>
<path d="M248.756 140.786L223.25 151.646C221.626 149.331 216.731 137.466 217.83 133.946L218.37 130.008L233.599 123.16L236.974 125.747C241.728 124.274 248.717 135.072 248.756 140.786Z" fill="#E6E6E6"/>
<path d="M236.915 140.033L230.465 142.779C229.22 143.309 227.326 142.002 226.243 139.867C225.161 137.731 225.293 135.562 226.537 135.032L232.987 132.286C234.232 131.756 236.126 133.062 237.208 135.198C238.291 137.333 238.159 139.503 236.915 140.033Z" fill="#3F3D56"/>
<path d="M182.213 154.165L179.745 149.188L181.166 148.587L183.627 153.548L219.255 225.946L217.835 226.551" fill="#3F3D56"/>
<path d="M206.613 158.438L181.107 169.298C177.345 167.518 171.594 155.867 175.688 151.598L176.227 147.66L191.456 140.812L194.831 143.399C198.33 144.383 205.142 155.528 206.613 158.438Z" fill="#E6E6E6"/>
<path d="M194.247 156.649L187.797 159.395C186.552 159.925 184.776 158.851 183.838 157.001C182.9 155.151 183.15 153.214 184.395 152.684L190.845 149.938C192.089 149.408 193.865 150.482 194.803 152.332C195.741 154.182 195.491 156.119 194.247 156.649Z" fill="#3F3D56"/>
<path d="M64.9798 106.299C86.3778 106.299 103.724 90.401 103.724 70.7903C103.724 51.1795 86.3778 35.2818 64.9798 35.2818C43.5819 35.2818 26.2354 51.1795 26.2354 70.7903C26.2354 90.401 43.5819 106.299 64.9798 106.299Z" fill="#FF6584"/>
<path opacity="0.3" d="M223.837 107.774L247.382 44.7519L221.528 107.02C221.4 107.167 221.313 107.341 221.273 107.526C221.233 107.711 221.241 107.902 221.298 108.083C221.355 108.265 221.458 108.431 221.599 108.569C221.739 108.706 221.914 108.811 222.108 108.874C222.302 108.938 222.509 108.958 222.713 108.933C222.917 108.908 223.112 108.839 223.281 108.731C223.45 108.624 223.589 108.481 223.685 108.314C223.782 108.148 223.834 107.963 223.837 107.774H223.837Z" fill="#F0F0F0"/>
<path d="M283.855 70.2087C279.246 71.6126 274.136 72.9916 268.526 74.3459C239.507 81.3479 200.61 86.8098 159.001 89.7258C117.392 92.6417 78.0414 92.6628 48.1984 89.7858C33.6609 88.3842 22.1625 86.3684 14.0229 83.7939C5.40531 81.0686 0.877184 77.7844 0.564114 74.033C-0.0455424 66.7246 15.6904 60.2921 28.9987 56.1829L29.3591 57.1629C11.0834 62.8059 1.25681 68.7692 1.68947 73.9542C2.24028 80.558 19.2352 85.9534 48.3164 88.7572C78.0938 91.6279 117.372 91.6059 158.915 88.6947C200.458 85.7833 239.283 80.3322 268.238 73.3457C296.516 66.523 312.419 58.8219 311.868 52.218C311.41 46.735 299.617 42.0445 278.661 39.0101L278.837 37.9886C294.064 40.1935 312.35 44.4381 312.993 52.1391C313.306 55.8906 309.375 59.7674 301.31 63.6618C296.712 65.8817 290.871 68.0718 283.855 70.2087Z" fill="#3F3D56"/>
<path d="M295.24 133.186C297.463 133.186 299.265 131.535 299.265 129.497C299.265 127.459 297.463 125.807 295.24 125.807C293.016 125.807 291.214 127.459 291.214 129.497C291.214 131.535 293.016 133.186 295.24 133.186Z" fill="#FF6584"/>
<path d="M320.818 233.162C323.042 233.162 324.844 231.51 324.844 229.472C324.844 227.434 323.042 225.783 320.818 225.783C318.595 225.783 316.793 227.434 316.793 229.472C316.793 231.51 318.595 233.162 320.818 233.162Z" fill="#F2F2F2"/>
<path d="M183.52 255.626C187.855 255.626 191.369 252.406 191.369 248.433C191.369 244.46 187.855 241.24 183.52 241.24C179.185 241.24 175.671 244.46 175.671 248.433C175.671 252.406 179.185 255.626 183.52 255.626Z" fill="#F2F2F2"/>
<path d="M123.711 160.421C125.934 160.421 127.737 158.769 127.737 156.732C127.737 154.694 125.934 153.042 123.711 153.042C121.488 153.042 119.685 154.694 119.685 156.732C119.685 158.769 121.488 160.421 123.711 160.421Z" fill="#3F3D56"/>
<path d="M259.053 165.223L276.423 169.344L287.076 188.521L269.066 189.169L259.053 165.223Z" fill="#E6E6E6"/>
<path d="M218.962 137.577L228.522 146.343L252.802 194.454L248.331 197.993L218.962 137.577Z" fill="#CCCCCC"/>
<path d="M198.176 145.523L198.926 157.898L221.843 206.567L227.702 205.875L198.176 145.523Z" fill="#CCCCCC"/>
<path d="M197.55 195.515L188.195 209.547L195.092 230.117L208.525 219.104L197.55 195.515Z" fill="#E6E6E6"/>
<path d="M280.186 204.137C275.328 204.137 270.005 203.969 264.215 203.633C234.268 201.89 195.477 195.83 154.987 186.571C114.499 177.311 77.1488 165.957 49.8188 154.601C36.5056 149.069 26.2878 143.833 19.4495 139.037C12.2095 133.96 9.04266 129.534 10.0365 125.884C11.9729 118.772 29.1194 117.216 43.1626 117.164L43.1674 118.198C23.8824 118.27 12.5052 121.089 11.1316 126.135C9.38172 132.561 23.6526 142.593 50.2848 153.659C77.5547 164.99 114.836 176.322 155.261 185.567C195.686 194.812 234.405 200.861 264.287 202.6C293.469 204.299 311.21 201.588 312.96 195.162C314.412 189.826 304.835 181.966 285.993 173.03L286.512 172.111C300.203 178.605 316.095 187.918 314.055 195.412C313.061 199.063 307.996 201.605 299.003 202.97C293.876 203.747 287.579 204.137 280.186 204.137Z" fill="#3F3D56"/>
</g>
<defs>
<clipPath id="clip0_5_79">
<rect width="339.453" height="284.828" fill="white" transform="translate(0.546936 0.17157)"/>
</clipPath>
</defs>
</svg>
